<svg xmlns="http://www.w3.org/2000/svg" width="400" height="300" viewBox="0 0 400 300">
  <!-- Engineer Silhouette -->
  <path d="M200,50 
           C220,50 230,60 240,70 
           L245,90 C260,95 270,110 265,125 
           L255,140 L260,150 L250,165 
           L270,175 L265,195 C265,205 255,220 240,225 
           L245,240 L240,245 L230,240 
           L225,250 L215,255 L210,240 L190,245 L180,230 
           L170,240 L155,235 L165,220 
           C150,215 140,200 140,190 
           L135,170 L155,160 L145,145 L150,130 L140,115 
           C135,100 145,85 160,80 
           L165,60 C175,55 185,50 200,50Z" 
        fill="#4a85bc" opacity="0.8" />
  
  <!-- Hard hat silhouette -->
  <path d="M190,60 
           C180,60 170,65 165,75 
           L170,85 L230,85 L235,75 
           C230,65 220,60 210,60 Z" 
        fill="#4a85bc" opacity="0.8" />
  
  <!-- Wrench silhouette -->
  <path d="M260,130 
           L275,145 L290,130 L300,140 L285,155 L300,170
           L290,180 L275,165 L260,180 L250,170 L265,155 L250,140 Z" 
        fill="#4a85bc" opacity="0.8" />
</svg>